#N canvas 2742 268 720 1255 12;
#X obj 27 22 inlet;
#X obj 216 10 r group_size;
#X obj 41 221 tgl 15 0 empty empty empty 17 7 0 10 #fcfcfc #000000
#000000 0 128;
#X obj 41 301 f 0;
#X obj 41 181 t b f;
#X obj 41 341 expr if($f1 <= $f2 \, $f1 \, -1);
#X obj 71 381 + 1;
#X msg 39 153 0;
#X obj 196 51 t b f;
#X obj 41 93 bng 15 250 50 0 empty empty empty 17 7 0 10 #fcfcfc #000000
#000000;
#X obj 58 119 s init;
#X obj 41 261 metro 10;
#X obj 40 441 s player;
#X connect 0 0 9 0;
#X connect 1 0 8 0;
#X connect 2 0 11 0;
#X connect 3 0 5 0;
#X connect 4 0 2 0;
#X connect 4 1 3 1;
#X connect 5 0 6 0;
#X connect 6 0 3 1;
#X connect 6 0 2 0;
#X connect 6 0 12 0;
#X connect 7 0 4 0;
#X connect 8 0 9 0;
#X connect 8 1 5 1;
#X connect 9 0 7 0;
#X connect 9 0 10 0;
#X connect 11 0 3 0;
