#N canvas 2195 527 1258 1074 12;
#X obj 194 160 mtof;
#X obj 194 189 osc~;
#X obj 234 240 vline~;
#X msg 234 210 1 50 \, 0 1000 100;
#X obj 234 190 bng 15 250 50 0 empty empty empty 17 7 0 10 #fcfcfc
#000000 #000000;
#X obj 194 270 *~;
#X obj 190 55 inlet;
#X obj 192 104 unpack f f;
#X floatatom 387 210 5 0 0 0 - - - 0;
#X obj 327 459 outlet~;
#X obj 325 386 *~ 1;
#X obj 364 161 / 127;
#X text 388 259 We're controlling amplitude a layer above this;
#X connect 0 0 1 0;
#X connect 0 0 4 0;
#X connect 1 0 5 0;
#X connect 2 0 5 1;
#X connect 3 0 2 0;
#X connect 4 0 3 0;
#X connect 5 0 10 0;
#X connect 6 0 7 0;
#X connect 7 0 0 0;
#X connect 7 1 11 0;
#X connect 10 0 9 0;
#X connect 11 0 8 0;
