#N canvas 254 497 3840 1148 12;
#X obj 23 152 poly 8 1;
#X obj 23 203 route 1 2 3 4 5 6 7 8, f 237;
#X obj 23 67 inlet;
#X obj 184 65 inlet;
#X obj 23 113 pack f f;
#X obj 23 249 wax-player-polysyn-voice-example;
#X obj 259 251 wax-player-polysyn-voice-example;
#X obj 496 250 wax-player-polysyn-voice-example;
#X obj 734 251 wax-player-polysyn-voice-example;
#X obj 969 251 wax-player-polysyn-voice-example;
#X obj 1205 250 wax-player-polysyn-voice-example;
#X obj 1443 250 wax-player-polysyn-voice-example;
#X obj 1680 251 wax-player-polysyn-voice-example;
#X obj 265 538 outlet~;
#X listbox 100 152 20 0 0 0 - - - 0;
#X obj 22 176 pack f f f;
#X connect 0 0 15 0;
#X connect 0 1 15 1;
#X connect 0 2 15 2;
#X connect 1 0 5 0;
#X connect 1 1 6 0;
#X connect 1 2 7 0;
#X connect 1 3 8 0;
#X connect 1 4 9 0;
#X connect 1 5 10 0;
#X connect 1 6 11 0;
#X connect 1 7 12 0;
#X connect 2 0 4 0;
#X connect 3 0 4 1;
#X connect 4 0 0 0;
#X connect 5 0 13 0;
#X connect 6 0 13 0;
#X connect 7 0 13 0;
#X connect 8 0 13 0;
#X connect 9 0 13 0;
#X connect 10 0 13 0;
#X connect 11 0 13 0;
#X connect 12 0 13 0;
#X connect 15 0 1 0;
