#N canvas 92 98 1306 941 12;
#N canvas 0 0 450 300 (subpatch) 0;
#X array lookup-notes 127 float 3 black black;
#A 0 50 73 54 84 24 97 123 51 47 26 79 37 33 50 93 2 41 38 4 7 108
44 109 35 102 54 59 48 66 120 29 60 66 105 125 68 32 66 31 126 109
2 60 20 119 109 46 105 43 24 10 91 112 91 70 6 20 100 93 3 37 43 107
45 86 123 83 96 100 118 98 64 115 16 109 117 114 20 119 114 1 44 81
50 73 88 59 125 106 122 8 47 84 83 63 108 46 4 63 116 54 17 94 85 33
103 12 54 4 91 116 25 43 40 35 22 8 118 36 38 9 94 35 95 2 101 18;
#X coords 0 127 127 -1 200 140 1;
#X restore 30 130 graph;
#N canvas 0 0 450 300 (subpatch) 0;
#X array lookup-destinations 127 float 3 black black;
#A 0 0 0 0 0 0 0 0 0 0 0 0 0 0 0 0 0 0 0 0 0 0 0 0 0 0 0 0 0 0 0 0
0 0 0 0 0 0 0 0 0 0 0 0 0 0 0 0 0 0 0 0 0 0 0 0 0 0 0 0 0 0 0 0 0 0
0 0 0 0 0 0 0 0 0 0 0 0 0 0 0 0 0 0 0 0 0 0 0 0 0 0 0 0 0 0 0 0 0 0
0 0 0 0 0 0 0 0 0 0 0 0 0 0 0 0 0 0 0 0 0 0 0 0 0 0 0 0;
#X coords 0 15 127 -1 200 140 1;
#X restore 260 130 graph;
#X obj 30 80 s lookup-notes;
#X obj 260 80 s lookup-destinations;
#X text 580 360 Every student in your group must find their IP address.
Put every IP address \, except your own \, into seperate message boxes.
;
#X text 690 420 Sally Example;
#X msg 600 460 192.168.3.20;
#X text 710 460 Ralph Example;
#X text 520 80 How many Students are in your group?;
#X floatatom 520 110 5 0 0 0 - - -, f 5;
#X text 520 190 In the following select box \, the arguments ahouls
be a count from 0 to your group size. If your group size is bigger
than what you see below \, add numbers. If it's smaller \, remove some
numbers.;
#X obj 520 300 select 0 1 2 3 4;
#X obj 520 140 s group-size;
#X obj 520 270 r player;
#X obj 40 320 bng 87 250 50 0 empty empty empty 17 7 0 10 #fcfcfc #000000
#000000;
#X text 150 320 Reset the lookup tables;
#X obj 180 460 arraysize lookup-notes;
#X floatatom 180 490 5 0 0 0 - - -, f 5;
#X obj 100 460 loadbang;
#X obj 30 10 loadbang;
#X obj 40 520 tgl 15 0 empty empty empty 17 7 0 10 #fcfcfc #000000
#000000 0 128;
#X obj 40 560 metro 5;
#X obj 40 600 f 0;
#X msg 40 450 0;
#X obj 40 480 t b f;
#X obj 40 640 expr if($f1 <= $f2 \, $f1 \, -1);
#X obj 70 680 + 1;
#X obj 40 810 random;
#X obj 200 810 random;
#X obj 40 720 t b f;
#X obj 40 880 tabwrite lookup-notes;
#X obj 200 880 tabwrite lookup-destinations;
#X obj 240 740 r group-size;
#X obj 530 580 send ip;
#X text 840 420 Connect the outlets of the select box \, left to right
\, to the message inlets for your group members.;
#X text 600 570 Connect all the messages for your group members to
the send box;
#X msg 600 680 listen 6666;
#X obj 600 710 netreceive -u -b;
#X obj 600 650 loadbang;
#X obj 600 740 oscparse;
#X obj 600 770 list trim;
#X text 710 650 See https://hvc.berlin/Puredata/using-osc-in-pure-data/
;
#X obj 600 800 route wax;
#X obj 370 580 wax-player;
#X obj 430 380 vsl 15 128 0 127 0 0 empty empty empty 0 -9 0 10 #fcfcfc
#000000 #000000 0 1;
#X msg 30 40 resize 127;
#X msg 100 490 127;
#X obj 600 990 tabread lookup-notes;
#X obj 790 990 tabread lookup-destinations;
#X obj 790 1030 s player;
#X obj 790 1070 r ip;
#X obj 580 1110 oscformat wax;
#X obj 580 1139 list prepend send;
#X obj 580 1168 list trim;
#X obj 580 1280 netsend -u -b;
#X obj 580 1070 f 0;
#X msg 690 1250 disconnect;
#X text 650 1310 send when connected;
#X obj 600 920 f;
#X obj 580 1210 t b a;
#X obj 580 1310 select 1;
#X obj 520 1280 bng 15 250 50 0 empty empty empty 17 7 0 10 #fcfcfc
#000000 #000000;
#X obj 790 1100 list prepend connect;
#X obj 790 1130 list append 6666;
#X msg 790 1160 \$1 \$2 \$3;
#X obj 240 769 - 1;
#X obj 600 880 delay 0.001;
#X text 690 880 The baud rate of MIDI is 312520 \, but MAX was slow
in 1991;
#X obj 1010 10 bng 109 250 50 0 empty empty empty 17 7 0 10 #fcfcfc
#000000 #000000;
#X obj 1050 160 arraysize loopup-notes;
#X obj 1010 190 random;
#X obj 1010 128 t b b;
#X obj 1010 219 s wax_note;
#X obj 510 830 r wax_note;
#X text 1130 20 Start the piece;
#X obj 180 518 t b f;
#X msg 580 420 129.12.186.32;
#X connect 6 0 33 0;
#X connect 9 0 12 0;
#X connect 11 0 76 0;
#X connect 11 1 6 0;
#X connect 13 0 11 0;
#X connect 14 0 16 0;
#X connect 16 0 17 0;
#X connect 17 0 75 0;
#X connect 18 0 46 0;
#X connect 19 0 45 0;
#X connect 20 0 21 0;
#X connect 21 0 22 0;
#X connect 22 0 25 0;
#X connect 23 0 24 0;
#X connect 24 0 20 0;
#X connect 24 1 22 1;
#X connect 25 0 26 0;
#X connect 25 0 29 0;
#X connect 26 0 22 1;
#X connect 26 0 20 0;
#X connect 27 0 30 0;
#X connect 28 0 31 0;
#X connect 29 0 27 0;
#X connect 29 0 28 0;
#X connect 29 1 30 1;
#X connect 29 1 31 1;
#X connect 32 0 65 0;
#X connect 36 0 37 0;
#X connect 37 0 39 0;
#X connect 38 0 36 0;
#X connect 39 0 40 0;
#X connect 40 0 42 0;
#X connect 42 0 43 0;
#X connect 42 0 58 1;
#X connect 42 0 66 0;
#X connect 44 0 43 1;
#X connect 45 0 2 0;
#X connect 45 0 3 0;
#X connect 46 0 17 0;
#X connect 47 0 55 1;
#X connect 48 0 49 0;
#X connect 50 0 62 0;
#X connect 51 0 52 0;
#X connect 52 0 53 0;
#X connect 53 0 59 0;
#X connect 54 0 60 0;
#X connect 55 0 51 0;
#X connect 56 0 54 0;
#X connect 58 0 47 0;
#X connect 58 0 48 0;
#X connect 59 0 56 0;
#X connect 59 1 54 0;
#X connect 60 0 61 0;
#X connect 61 0 55 0;
#X connect 62 0 63 0;
#X connect 63 0 64 0;
#X connect 64 0 54 0;
#X connect 65 0 28 1;
#X connect 65 0 23 0;
#X connect 66 0 58 0;
#X connect 68 0 71 0;
#X connect 69 0 70 1;
#X connect 70 0 72 0;
#X connect 71 0 70 0;
#X connect 71 1 69 0;
#X connect 73 0 58 1;
#X connect 73 0 66 0;
#X connect 75 0 23 0;
#X connect 75 1 25 1;
#X connect 75 1 27 1;
#X connect 76 0 33 0;
