#N canvas -2 62 3840 1975 12;
#N canvas 0 0 450 300 (subpatch) 0;
#X array lookup-notes 127 float 3;
#A 0 107 18 95 110 120 22 82 16 88 21 105 51 2 22 63 79 114 71 6 37
111 100 3 97 67 21 25 65 7 81 69 47 94 65 37 105 60 34 113 35 37 36
9 36 110 80 106 110 5 104 62 92 41 74 81 70 56 79 29 34 101 50 69 36
5 108 26 103 72 31 30 7 0 106 4 70 97 91 51 49 71 70 72 59 113 41 24
104 72 18 49 103 33 123 92 58 123 52 35 81 71 59 75 53 38 40 96 35
41 7 47 47 25 62 73 106 52 111 11 1 114 90 24 91 70 61 96;
#X coords 0 127 127 -1 200 140 1;
#X restore 30 130 graph;
#N canvas 0 0 450 300 (subpatch) 0;
#X array lookup-destinations 127 float 3;
#A 0 0 0 0 0 0 0 0 0 0 0 0 0 0 0 0 0 0 0 0 0 0 0 0 0 0 0 0 0 0 0 0
0 0 0 0 0 0 0 0 0 0 0 0 0 0 0 0 0 0 0 0 0 0 0 0 0 0 0 0 0 0 0 0 0 0
0 0 0 0 0 0 0 0 0 0 0 0 0 0 0 0 0 0 0 0 0 0 0 0 0 0 0 0 0 0 0 0 0 0
0 0 0 0 0 0 0 0 0 0 0 0 0 0 0 0 0 0 0 0 0 0 0 0 0 0 0 0;
#X coords 0 15 127 -1 200 140 1;
#X restore 260 130 graph;
#X obj 30 80 s lookup-notes;
#X obj 260 80 s lookup-destinations;
#X text 580 360 Every student in your group must find their IP address.
Put every IP address \, except your own \, into seperate message boxes.
;
#X text 690 420 Sally Example;
#X msg 600 460 192.168.3.20;
#X text 710 460 Ralph Example;
#X text 520 80 How many Students are in your group?;
#X floatatom 520 109 5 0 0 0 - - - 0;
#X text 520 190 In the following select box \, the arguments ahouls
be a count from 0 to your group size. If your group size is bigger
than what you see below \, add numbers. If it's smaller \, remove some
numbers.;
#X obj 520 300 select 0 1 2 3 4;
#X obj 520 140 s group-size;
#X obj 520 270 r player;
#X obj 40 320 bng 87 250 50 0 empty empty empty 17 7 0 10 #fcfcfc #000000
#000000;
#X text 150 320 Reset the lookup tables;
#X obj 180 460 arraysize lookup-notes;
#X floatatom 180 490 5 0 0 0 - - - 0;
#X obj 100 460 loadbang;
#X obj 30 10 loadbang;
#X obj 40 520 tgl 15 0 empty empty empty 17 7 0 10 #fcfcfc #000000
#000000 0 128;
#X obj 40 560 metro 5;
#X obj 40 600 f 0;
#X msg 40 450 0;
#X obj 40 480 t b f;
#X obj 40 640 expr if($f1 <= $f2 \, $f1 \, -1);
#X obj 70 680 + 1;
#X obj 40 810 random;
#X obj 200 810 random;
#X obj 40 720 t b f;
#X obj 40 880 tabwrite lookup-notes;
#X obj 200 880 tabwrite lookup-destinations;
#X obj 240 740 r group-size;
#X obj 530 580 send ip;
#X text 600 570 Connect all the messages for your group members to
the send box;
#X msg 600 680 listen 6666;
#X obj 600 710 netreceive -u -b;
#X obj 600 650 loadbang;
#X obj 600 740 oscparse;
#X obj 600 770 list trim;
#X text 710 650 See https://hvc.berlin/Puredata/using-osc-in-pure-data/
;
#X obj 600 800 route wax;
#X obj 430 380 vsl 15 128 0 127 0 0 empty empty empty 0 -9 0 10 #fcfcfc
#000000 #000000 0 1;
#X msg 30 40 resize 127;
#X msg 100 490 127;
#X obj 600 990 tabread lookup-notes;
#X obj 790 990 tabread lookup-destinations;
#X obj 790 1030 s player;
#X obj 790 1070 r ip;
#X obj 580 1110 oscformat wax;
#X obj 580 1139 list prepend send;
#X obj 580 1168 list trim;
#X obj 580 1280 netsend -u -b;
#X msg 690 1250 disconnect;
#X text 650 1310 send when connected;
#X obj 600 920 f;
#X obj 580 1210 t b a;
#X obj 580 1310 select 1;
#X obj 520 1280 bng 15 250 50 0 empty empty empty 17 7 0 10 #fcfcfc
#000000 #000000;
#X obj 790 1100 list prepend connect;
#X obj 790 1130 list append 6666;
#X msg 790 1160 \$1 \$2 \$3;
#X obj 240 769 - 1;
#X text 690 880 The baud rate of MIDI is 312520 \, but MAX was slow
in 1991;
#X obj 1010 10 bng 109 250 50 0 empty empty empty 17 7 0 10 #fcfcfc
#000000 #000000;
#X obj 1010 195 random;
#X obj 1010 128 t b b;
#X obj 1010 224 s wax_note;
#X obj 510 830 r wax_note;
#X text 1130 20 Start the piece;
#X obj 180 518 t b f;
#X obj 1050 165 arraysize lookup-notes;
#X obj 690 800 print;
#X msg 580 420 129.12.186.23;
#X obj 370 580 wax-player-example;
#X obj 599 857 bng 15 250 50 0 empty empty empty 17 7 0 10 #fcfcfc
#000000 #000000;
#X floatatom 524 1312 5 0 0 0 - - - 0;
#X floatatom 619 1071 5 0 0 0 - - - 0;
#X obj 600 880 delay 1.1;
#X msg 555 1028 -1;
#X obj 580 1070 f -1;
#X obj 526 998 r init;
#X text 840 420 Connect the outlets of the select box \, left to right
\, to the message inlets for your group members. After you connect
everyone \, click this bang ->;
#X obj 1178 481 bng 15 250 50 0 empty empty empty 17 7 0 10 #fcfcfc
#000000 #000000;
#X obj 1178 501 wax-init;
#X connect 6 0 33 0;
#X connect 9 0 12 0;
#X connect 11 0 73 0;
#X connect 11 1 6 0;
#X connect 13 0 11 0;
#X connect 14 0 16 0;
#X connect 16 0 17 0;
#X connect 17 0 70 0;
#X connect 18 0 44 0;
#X connect 19 0 43 0;
#X connect 20 0 21 0;
#X connect 21 0 22 0;
#X connect 22 0 25 0;
#X connect 23 0 24 0;
#X connect 24 0 20 0;
#X connect 24 1 22 1;
#X connect 25 0 26 0;
#X connect 25 0 29 0;
#X connect 26 0 22 1;
#X connect 26 0 20 0;
#X connect 27 0 30 0;
#X connect 28 0 31 0;
#X connect 29 0 27 0;
#X connect 29 0 28 0;
#X connect 29 1 30 1;
#X connect 29 1 31 1;
#X connect 32 0 62 0;
#X connect 35 0 36 0;
#X connect 36 0 38 0;
#X connect 37 0 35 0;
#X connect 38 0 39 0;
#X connect 39 0 41 0;
#X connect 39 0 72 0;
#X connect 41 0 55 1;
#X connect 41 0 74 0;
#X connect 41 0 75 0;
#X connect 42 0 74 1;
#X connect 43 0 2 0;
#X connect 43 0 3 0;
#X connect 44 0 17 0;
#X connect 45 0 77 0;
#X connect 45 0 80 1;
#X connect 46 0 47 0;
#X connect 48 0 59 0;
#X connect 49 0 50 0;
#X connect 50 0 51 0;
#X connect 51 0 56 0;
#X connect 52 0 57 0;
#X connect 52 0 76 0;
#X connect 53 0 52 0;
#X connect 55 0 45 0;
#X connect 55 0 46 0;
#X connect 56 0 53 0;
#X connect 56 1 52 0;
#X connect 57 0 58 0;
#X connect 58 0 80 0;
#X connect 59 0 60 0;
#X connect 60 0 61 0;
#X connect 61 0 52 0;
#X connect 62 0 28 1;
#X connect 62 0 23 0;
#X connect 64 0 66 0;
#X connect 65 0 67 0;
#X connect 66 0 65 0;
#X connect 66 1 71 0;
#X connect 68 0 55 1;
#X connect 68 0 75 0;
#X connect 70 0 23 0;
#X connect 70 1 25 1;
#X connect 70 1 27 1;
#X connect 71 0 65 1;
#X connect 73 0 33 0;
#X connect 75 0 78 0;
#X connect 78 0 55 0;
#X connect 79 0 80 1;
#X connect 80 0 49 0;
#X connect 81 0 79 0;
#X connect 83 0 84 0;
